<svg version="1.0" xmlns="http://www.w3.org/2000/svg"
 width="136.000000pt" height="81.000000pt" viewBox="0 0 136.000000 81.000000"
 preserveAspectRatio="xMidYMid meet">

<g transform="translate(0.000000,81.000000) scale(0.100000,-0.100000)"
fill="blue" stroke="none">
<path d="M0 405 l0 -405 680 0 680 0 0 405 0 405 -680 0 -680 0 0 -405z m575
145 c0 -18 -6 -26 -21 -28 -26 -4 -40 24 -23 45 18 21 44 11 44 -17z m75 15
c18 -21 5 -47 -22 -43 -26 3 -37 36 -16 49 18 12 24 11 38 -6z m-282 -7 c17
-17 17 -239 0 -256 -7 -7 -42 -12 -85 -12 l-73 0 0 110 0 110 30 0 30 0 0 -96
0 -95 28 3 27 3 0 105 0 105 -57 3 c-43 2 -58 7 -58 17 0 19 140 21 158 3z
m142 -82 c0 -8 -10 -16 -22 -18 -21 -3 -23 -9 -26 -85 l-3 -83 -29 0 -30 0 0
90 c0 100 6 109 73 110 25 0 37 -4 37 -14z m138 2 c8 -8 12 -45 12 -100 l0
-88 -70 0 c-75 0 -90 10 -90 62 0 42 27 68 71 68 26 0 39 4 39 14 0 23 -25 36
-59 30 -24 -5 -31 -3 -31 10 0 13 11 16 58 16 32 0 63 -5 70 -12z m182 -43 c0
-62 -13 -75 -76 -75 -49 0 -74 23 -74 70 0 50 14 60 87 60 l63 0 0 -55z m168
43 c7 -7 12 -36 12 -65 l0 -53 -50 0 c-43 0 -50 -3 -50 -20 0 -17 7 -20 50
-20 38 0 50 -4 50 -15 0 -12 -14 -15 -70 -15 -83 0 -90 8 -90 100 0 89 9 100
78 100 32 0 63 -5 70 -12z m142 -3 c0 -9 -9 -15 -25 -15 -25 0 -25 -1 -25 -85
l0 -85 -30 0 -30 0 0 90 c0 100 6 109 73 110 26 0 37 -4 37 -15z m-310 -144
c14 -28 12 -63 -6 -89 -12 -18 -25 -22 -64 -22 -59 0 -80 18 -80 69 0 50 14
61 82 61 46 0 59 -4 68 -19z"/>
<path d="M573 383 c-7 -2 -13 -18 -13 -34 0 -24 4 -29 26 -29 22 0 25 4 22 32
-3 32 -13 40 -35 31z"/>
<path d="M733 444 c-8 -20 9 -49 28 -49 8 0 15 13 17 33 3 27 0 32 -18 32 -11
0 -23 -7 -27 -16z"/>
<path d="M910 425 c0 -32 3 -36 23 -33 17 2 22 10 22 33 0 23 -5 31 -22 33
-20 3 -23 -1 -23 -33z"/>
<path d="M734 306 c-10 -26 1 -51 21 -51 15 0 21 8 23 33 3 27 0 32 -18 32
-11 0 -23 -6 -26 -14z"/>
</g>
</svg>
