<svg version="1.0" xmlns="http://www.w3.org/2000/svg"
 width="317.000000pt" height="156.000000pt" viewBox="0 0 317.000000 156.000000"
 preserveAspectRatio="xMidYMid meet">

<g transform="translate(0.000000,156.000000) scale(0.100000,-0.100000)"
fill="red" stroke="none">
<path d="M0 780 c0 -513 3 -780 10 -780 7 0 10 267 10 780 0 513 -3 780 -10
780 -7 0 -10 -267 -10 -780z"/>
<path d="M3150 780 c0 -513 3 -780 10 -780 7 0 10 267 10 780 0 513 -3 780
-10 780 -7 0 -10 -267 -10 -780z"/>
<path d="M757 1063 c-4 -3 -7 -28 -7 -55 l0 -48 60 0 60 0 0 55 0 55 -53 0
c-30 0 -57 -3 -60 -7z"/>
<path d="M1609 1058 c-1 -7 -1 -31 0 -53 3 -83 2 -85 -99 -85 -84 0 -91 -2
-114 -27 -31 -33 -40 -86 -34 -198 5 -91 22 -129 64 -145 14 -6 86 -10 160
-10 l134 0 0 265 0 265 -55 0 c-37 0 -55 -4 -56 -12z m-15 -211 c14 -11 16
-27 14 -122 l-3 -110 -50 0 c-43 0 -51 3 -62 25 -14 27 -18 177 -5 197 4 6 23
13 42 16 19 2 38 5 41 5 3 1 13 -4 23 -11z"/>
<path d="M754 921 c-2 -2 -4 -89 -4 -193 l0 -188 60 0 60 0 -2 192 -3 191 -53
1 c-29 1 -55 0 -58 -3z"/>
<path d="M2496 921 c-3 -4 28 -86 69 -182 41 -95 75 -177 75 -182 0 -5 -18
-47 -40 -94 -22 -47 -40 -87 -40 -89 0 -2 26 -4 58 -4 l57 1 128 267 c70 147
127 272 127 278 0 7 -21 12 -50 13 -58 1 -53 7 -115 -129 -23 -52 -47 -96 -53
-98 -5 -1 -29 45 -52 103 -23 58 -51 110 -61 115 -22 12 -96 13 -103 1z"/>
<path d="M2988 900 c2 -16 5 -30 7 -30 2 0 5 14 7 30 3 19 0 30 -7 30 -7 0
-10 -11 -7 -30z"/>
<path d="M3065 920 c-3 -5 -1 -18 4 -27 9 -16 10 -14 11 10 0 28 -5 34 -15 17z"/>
<path d="M90 730 l0 -190 55 0 54 0 3 158 3 157 46 3 c75 5 79 -4 79 -174 l0
-144 55 0 54 0 3 158 c3 157 3 157 27 160 13 2 39 1 57 -3 l34 -6 0 -154 0
-155 60 0 60 0 0 155 c0 162 -9 205 -45 219 -9 3 -136 6 -281 6 l-264 0 0
-190z"/>
<path d="M940 730 l0 -190 54 0 c50 0 54 2 60 26 4 15 6 85 5 158 l-1 131 52
-1 c32 -1 56 -7 61 -15 5 -8 9 -78 9 -156 l0 -143 55 0 55 0 0 165 c0 163 0
166 -25 190 -23 24 -28 25 -175 25 l-150 0 0 -190z"/>
<path d="M1892 903 c-18 -9 -40 -29 -47 -44 -13 -25 -75 -280 -75 -308 0 -8
20 -11 61 -9 l62 3 32 143 c17 78 36 147 42 153 6 6 31 14 56 16 35 4 47 11
56 30 6 13 11 26 11 28 0 3 -37 5 -82 5 -56 0 -94 -6 -116 -17z"/>
<path d="M2142 895 c-7 -14 -12 -28 -12 -30 0 -3 40 -5 89 -5 49 0 96 -3 105
-6 13 -5 16 -26 16 -125 l0 -119 -58 0 c-53 0 -60 2 -70 26 -20 43 -5 70 54
101 34 18 54 34 54 46 0 20 -11 21 -100 6 -82 -13 -106 -29 -121 -78 -16 -53
-4 -108 31 -143 l28 -28 152 0 151 0 -3 171 c-4 218 4 209 -178 209 -126 0
-127 0 -138 -25z"/>
<path d="M3046 887 c3 -10 9 -15 12 -12 3 3 0 11 -7 18 -10 9 -11 8 -5 -6z"/>
</g>
</svg>
